HIERARCHY
ROOT Hips
{
	OFFSET	0.00	0.00	0.00
	CHANNELS 6 Xposition Yposition Zposition Zrotation Xrotation Yrotation
	JOINT LeftUpLeg
	{
		OFFSET	 0.126116	-0.065224	 0.014019
		CHANNELS 3 Zrotation Xrotation Yrotation
		JOINT LeftLeg
		{
			OFFSET	 0.000000	 0.569914	 0.000000
			CHANNELS 3 Zrotation Xrotation Yrotation
			JOINT LeftFoot
			{
				OFFSET	 0.000000	 0.544423	 0.000000
				CHANNELS 3 Zrotation Xrotation Yrotation
				JOINT LeftToeBase
				{
					OFFSET	 0.000000	 0.207117	 0.000000
					CHANNELS 3 Zrotation Xrotation Yrotation
					End Site
					{
						OFFSET	 0.000000	 0.207117	 0.000000
					}
				}
			}
		}
	}
	JOINT RightUpLeg
	{
		OFFSET	-0.124023	-0.065224	 0.008373
		CHANNELS 3 Zrotation Xrotation Yrotation
		JOINT RightLeg
		{
			OFFSET	 0.000000	 0.570047	 0.000000
			CHANNELS 3 Zrotation Xrotation Yrotation
			JOINT RightFoot
			{
				OFFSET	 0.000000	 0.544354	 0.000000
				CHANNELS 3 Zrotation Xrotation Yrotation
				JOINT RightToeBase
				{
					OFFSET	 0.000000	 0.207540	 0.000000
					CHANNELS 3 Zrotation Xrotation Yrotation
					End Site
					{
						OFFSET	 0.000000	 0.207540	 0.000000
					}
				}
			}
		}
	}
	JOINT Spine
	{
		OFFSET	 0.000184	 0.117403	 0.007763
		CHANNELS 3 Zrotation Xrotation Yrotation
		JOINT Spine1
		{
			OFFSET	 0.000000	 0.137269	 0.000000
			CHANNELS 3 Zrotation Xrotation Yrotation
			JOINT Spine2
			{
				OFFSET	 0.000000	 0.156879	 0.000000
				CHANNELS 3 Zrotation Xrotation Yrotation
				JOINT LeftShoulder
				{
					OFFSET	 0.080501	 0.160143	 0.002496
					CHANNELS 3 Zrotation Xrotation Yrotation
					JOINT LeftArm
					{
						OFFSET	 0.000000	 0.164363	 0.000000
						CHANNELS 3 Zrotation Xrotation Yrotation
						JOINT LeftForeArm
						{
							OFFSET	 0.000000	 0.364576	 0.000000
							CHANNELS 3 Zrotation Xrotation Yrotation
							JOINT LeftHand
							{
								OFFSET	 0.000000	 0.360812	 0.000000
								CHANNELS 3 Zrotation Xrotation Yrotation
								JOINT LeftHandIndex1
								{
									OFFSET	 0.000000	 0.086006	 0.000000
									CHANNELS 3 Zrotation Xrotation Yrotation
									JOINT LeftHandIndex2
									{
										OFFSET	 0.000000	 0.047237	 0.000000
										CHANNELS 3 Zrotation Xrotation Yrotation
										JOINT LeftHandIndex3
										{
											OFFSET	-0.004284	 0.038165	 0.000551
											CHANNELS 3 Zrotation Xrotation Yrotation
											End Site
											{
												OFFSET	-0.004284	 0.038165	 0.000551
											}
										}
									}
								}
							}
						}
					}
				}
				JOINT Neck
				{
					OFFSET	 0.000000	 0.176489	 0.000000
					CHANNELS 3 Zrotation Xrotation Yrotation
					JOINT Head
					{
						OFFSET	 0.000000	 0.077941	 0.001747
						CHANNELS 3 Zrotation Xrotation Yrotation
						End Site
						{
							OFFSET	 0.000000	 0.077941	 0.001747
						}
					}
				}
				JOINT RightShoulder
				{
					OFFSET	-0.080363	 0.159706	-0.000306
					CHANNELS 3 Zrotation Xrotation Yrotation
					JOINT RightArm
					{
						OFFSET	 0.000000	 0.164196	 0.000000
						CHANNELS 3 Zrotation Xrotation Yrotation
						JOINT RightForeArm
						{
							OFFSET	 0.000000	 0.365611	 0.000000
							CHANNELS 3 Zrotation Xrotation Yrotation
							JOINT RightHand
							{
								OFFSET	 0.000000	 0.360648	 0.000000
								CHANNELS 3 Zrotation Xrotation Yrotation
								JOINT RightHandIndex1
								{
									OFFSET	 0.000000	 0.069977	 0.000000
									CHANNELS 3 Zrotation Xrotation Yrotation
									JOINT RightHandIndex2
									{
										OFFSET	 0.000000	 0.052305	 0.000000
										CHANNELS 3 Zrotation Xrotation Yrotation
										JOINT RightHandIndex3
										{
											OFFSET	 0.009002	 0.042196	 0.000782
											CHANNELS 3 Zrotation Xrotation Yrotation
											End Site
											{
												OFFSET	 0.009002	 0.042196	 0.000782
											}
										}
									}
								}
							}
						}
					}
				}
			}
		}
	}
}
MOTION
Frames:    11
Frame Time: 0.03333334
 0.001596	 1.271255	 0.063398	-0.065945	-0.008777	-179.996000	 177.355500	 1.230120	 17.805430	 2.621678	-12.183860	 0.022401	-2.132696	 71.705460	 4.112964	 1.292262	 28.425850	-2.713146	-177.353700	 1.748241	-17.808950	-2.681885	-12.821510	-0.035140	 2.315060	 71.817020	-4.206116	-1.288183	 28.361890	 2.710176	-0.056031	 2.715319	 1.550417	-0.452020	 3.673577	 0.828415	 0.372366	-4.690429	-2.372565	-101.478000	 1.740683	 90.353400	-3.457004	 59.179830	 5.483681	 7.262631	 14.817280	 0.509489	 10.212510	-4.491475	 5.886887	-6.580301	 5.266122	 0.000000	 0.000000	 0.000000	 0.000000	 0.000000	 0.000000	 0.000000	 0.089846	-3.783161	 0.005928	 0.006343	 1.250200	-0.581350	 101.796200	-0.213314	-89.955450	-35.855440	 14.677680	 47.570380	-84.082460	 56.763450	 48.472590	 30.425130	-29.763640	-30.077720	 15.208500	 5.323790	 0.000000	 0.000000	 0.000000	 0.000000	 0.000000	 0.000000	 0.000000
 0.001596	 1.271255	 0.063398	-0.065950	-0.008782	-179.996000	 177.355500	 1.230130	 17.805510	 2.621697	-12.183930	 0.022403	-2.132471	 71.705510	 4.112715	 1.292262	 28.425850	-2.713146	-177.353700	 1.748287	-17.809090	-2.681896	-12.821580	-0.035147	 2.314682	 71.817030	-4.205689	-1.288183	 28.361890	 2.710176	-0.056033	 2.715320	 1.550416	-0.452033	 3.673573	 0.828414	 0.372377	-4.690429	-2.372566	-101.478000	 1.740670	 90.353390	-3.492894	 58.923520	 5.477660	 7.266296	 14.824420	 0.508550	 10.235280	-4.444829	 5.863730	-6.580301	 5.266122	 0.000000	 0.000000	 0.000000	 0.000000	 0.000000	 0.000000	 0.000000	 0.089846	-3.783161	 0.005928	 0.006343	 1.250200	-0.581349	 101.796200	-0.213318	-89.955440	-39.911630	 12.482080	 51.370030	-77.085530	 56.228670	 42.394980	 30.658870	-27.757850	-32.957490	 15.208500	 5.323790	 0.000000	 0.000000	 0.000000	 0.000000	 0.000000	 0.000000	 0.000000
 0.001596	 1.271255	 0.063398	-0.065945	-0.008777	-179.996000	 177.355500	 1.230120	 17.805600	 2.621683	-12.183890	 0.022395	-2.132200	 71.705470	 4.112420	 1.292262	 28.425850	-2.713146	-177.353700	 1.748287	-17.809070	-2.681896	-12.821580	-0.035144	 2.314726	 71.817010	-4.205737	-1.288183	 28.361890	 2.710176	-0.056031	 2.715319	 1.550446	-0.452008	 3.673578	 0.828442	 0.372355	-4.690397	-2.372568	-101.478000	 1.740672	 90.353390	-3.618878	 57.417150	 5.240577	 7.107984	 14.516800	 0.548652	 10.414060	-4.635963	 5.794253	-6.580301	 5.266122	 0.000000	 0.000000	 0.000000	 0.000000	 0.000000	 0.000000	 0.000000	 0.089846	-3.783161	 0.005928	 0.006343	 1.250200	-0.581349	 101.796200	-0.213317	-89.955440	-78.749830	-5.941530	 64.103250	-11.786890	 17.400880	-4.232479	 3.805824	-7.251281	-70.012860	 15.208500	 5.323790	 0.000000	 0.000000	 0.000000	 0.000000	 0.000000	 0.000000	 0.000000
 0.001596	 1.271255	 0.063398	-0.065945	-0.008777	-179.996000	 177.355500	 1.230120	 17.805600	 2.621683	-12.183890	 0.022395	-2.132200	 71.705470	 4.112420	 1.292262	 28.425850	-2.713146	-177.353700	 1.748287	-17.809070	-2.681896	-12.821580	-0.035144	 2.314726	 71.817010	-4.205737	-1.288183	 28.361890	 2.710176	-0.056031	 2.715319	 1.550446	-0.452008	 3.673578	 0.828442	 0.372355	-4.690397	-2.372568	-101.478000	 1.740672	 90.353390	-3.624439	 57.389850	 5.215813	 7.101104	 14.503430	 0.550350	 10.407890	-4.780529	 5.818100	-6.580301	 5.266122	 0.000000	 0.000000	 0.000000	 0.000000	 0.000000	 0.000000	 0.000000	 0.089846	-3.783161	 0.005928	 0.006343	 1.250200	-0.581349	 101.796200	-0.213317	-89.955440	-81.074940	-6.531768	 63.881630	-9.152096	 13.713630	-5.150107	 0.150067	-6.293270	-72.836280	 15.208500	 5.323790	 0.000000	 0.000000	 0.000000	 0.000000	 0.000000	 0.000000	 0.000000
 0.001596	 1.271255	 0.063399	-0.065950	-0.008782	-179.996000	 177.355500	 1.230124	 17.805600	 2.621683	-12.183890	 0.022397	-2.132198	 71.705470	 4.112417	 1.292262	 28.425850	-2.713146	-177.353700	 1.748242	-17.809100	-2.681876	-12.821470	-0.035141	 2.314601	 71.816960	-4.205612	-1.288183	 28.361890	 2.710176	-0.056035	 2.715320	 1.550445	-0.452036	 3.673744	 0.828445	 0.372377	-4.690503	-2.372572	-101.478000	 1.740678	 90.353400	-3.625624	 57.386840	 5.210350	 7.100284	 14.501750	 0.550596	 10.405550	-4.817630	 5.824340	-6.580301	 5.266122	 0.000000	 0.000000	 0.000000	 0.000000	 0.000000	 0.000000	 0.000000	 0.089846	-3.783161	 0.005928	 0.006343	 1.250200	-0.581350	 101.796200	-0.213311	-89.955450	-81.601220	-6.629522	 63.813370	-8.558345	 12.861060	-5.346023	-0.752110	-6.101087	-73.557750	 15.208500	 5.323790	 0.000000	 0.000000	 0.000000	 0.000000	 0.000000	 0.000000	 0.000000
 0.001596	 1.271255	 0.063399	-0.065950	-0.008782	-179.996000	 177.355500	 1.230132	 17.805500	 2.621670	-12.183820	 0.022395	-2.132488	 71.705410	 4.112735	 1.292262	 28.425850	-2.713146	-177.353700	 1.748194	-17.809000	-2.681836	-12.821300	-0.035134	 2.314881	 71.816850	-4.205928	-1.288183	 28.361890	 2.710176	-0.056035	 2.715320	 1.550445	-0.452026	 3.673747	 0.828445	 0.372373	-4.690512	-2.372564	-101.478000	 1.740667	 90.353380	-3.617719	 57.426090	 5.246386	 7.110269	 14.521200	 0.548107	 10.414530	-4.608211	 5.789759	-6.580301	 5.266122	 0.000000	 0.000000	 0.000000	 0.000000	 0.000000	 0.000000	 0.000000	 0.089846	-3.783161	 0.005928	 0.006343	 1.250200	-0.581349	 101.796200	-0.213323	-89.955440	-78.649140	-5.824759	 64.077660	-11.879580	 17.527430	-4.204430	 4.191412	-7.214101	-69.789700	 15.208500	 5.323790	 0.000000	 0.000000	 0.000000	 0.000000	 0.000000	 0.000000	 0.000000
 0.001596	 1.271255	 0.063398	-0.065950	-0.008782	-179.996000	 177.355500	 1.230082	 17.805520	 2.621669	-12.183820	 0.022398	-2.132417	 71.705470	 4.112674	 1.292262	 28.425850	-2.713146	-177.353700	 1.748335	-17.809060	-2.681922	-12.821690	-0.035147	 2.314791	 71.817090	-4.205793	-1.288183	 28.361890	 2.710176	-0.056027	 2.715320	 1.550472	-0.452036	 3.673578	 0.828471	 0.372373	-4.690432	-2.372567	-101.478000	 1.740673	 90.353390	-3.608481	 57.560830	 5.301539	 7.140294	 14.579690	 0.540473	 10.405550	-4.414657	 5.765995	-6.580301	 5.266122	 0.000000	 0.000000	 0.000000	 0.000000	 0.000000	 0.000000	 0.000000	 0.089846	-3.783161	 0.005928	 0.006343	 1.250200	-0.581350	 101.796200	-0.213313	-89.955440	-71.832350	-3.517039	 64.209540	-20.114980	 27.817180	-0.621359	 11.854380	-10.891630	-63.655980	 15.208500	 5.323790	 0.000000	 0.000000	 0.000000	 0.000000	 0.000000	 0.000000	 0.000000
 0.001596	 1.271255	 0.063398	-0.065945	-0.008777	-179.996000	 177.355500	 1.230120	 17.805600	 2.621683	-12.183890	 0.022395	-2.132200	 71.705470	 4.112420	 1.292262	 28.425850	-2.713146	-177.353700	 1.748287	-17.809070	-2.681896	-12.821580	-0.035144	 2.314726	 71.817010	-4.205737	-1.288183	 28.361890	 2.710176	-0.056031	 2.715319	 1.550446	-0.452008	 3.673578	 0.828442	 0.372355	-4.690397	-2.372568	-101.478000	 1.740672	 90.353390	-3.600160	 57.727790	 5.346012	 7.172171	 14.641700	 0.532522	 10.383770	-4.337211	 5.764641	-6.580301	 5.266122	 0.000000	 0.000000	 0.000000	 0.000000	 0.000000	 0.000000	 0.000000	 0.089846	-3.783161	 0.005928	 0.006343	 1.250200	-0.581349	 101.796200	-0.213317	-89.955440	-65.939920	-1.030155	 63.683430	-28.203150	 35.944580	 3.977888	 17.353480	-14.166990	-58.249310	 15.208500	 5.323790	 0.000000	 0.000000	 0.000000	 0.000000	 0.000000	 0.000000	 0.000000
 0.001596	 1.271255	 0.063398	-0.065945	-0.008777	-179.996000	 177.355500	 1.230120	 17.805600	 2.621683	-12.183890	 0.022395	-2.132200	 71.705470	 4.112420	 1.292262	 28.425850	-2.713146	-177.353700	 1.748287	-17.809070	-2.681896	-12.821580	-0.035144	 2.314726	 71.817010	-4.205737	-1.288183	 28.361890	 2.710176	-0.056031	 2.715319	 1.550446	-0.452008	 3.673578	 0.828442	 0.372355	-4.690397	-2.372568	-101.478000	 1.740672	 90.353390	-3.542112	 58.500430	 5.454108	 7.255858	 14.804110	 0.511287	 10.280360	-4.369542	 5.823696	-6.580301	 5.266122	 0.000000	 0.000000	 0.000000	 0.000000	 0.000000	 0.000000	 0.000000	 0.089846	-3.783161	 0.005928	 0.006343	 1.250200	-0.581349	 101.796200	-0.213317	-89.955440	-48.351260	 8.260192	 57.077440	-59.589260	 52.918620	 27.399910	 28.274730	-23.581170	-41.770260	 15.208500	 5.323790	 0.000000	 0.000000	 0.000000	 0.000000	 0.000000	 0.000000	 0.000000
 0.001596	 1.271255	 0.063398	-0.065954	-0.008782	-179.996000	 177.355500	 1.230124	 17.805430	 2.621678	-12.183860	 0.022399	-2.132705	 71.705470	 4.112971	 1.292262	 28.425850	-2.713146	-177.353700	 1.748232	-17.808970	-2.681881	-12.821520	-0.035144	 2.314978	 71.817020	-4.206029	-1.288183	 28.361890	 2.710176	-0.056042	 2.715326	 1.550417	-0.452019	 3.673575	 0.828417	 0.372364	-4.690424	-2.372551	-101.478000	 1.740658	 90.353370	-3.506108	 58.818670	 5.473846	 7.265776	 14.823380	 0.508732	 10.245500	-4.425732	 5.853531	-6.580301	 5.266122	 0.000000	 0.000000	 0.000000	 0.000000	 0.000000	 0.000000	 0.000000	 0.089846	-3.783161	 0.005928	 0.006343	 1.250165	-0.581340	 101.796200	-0.213315	-89.955460	-42.852120	 11.397370	 53.118600	-70.439780	 55.327630	 36.495660	 29.541490	-26.405040	-37.238410	 15.208500	 5.323790	 0.000000	 0.000000	 0.000000	 0.000000	 0.000000	 0.000000	 0.000000
 0.001596	 1.271255	 0.063398	-0.065945	-0.008777	-179.996000	 177.355500	 1.230120	 17.805600	 2.621683	-12.183890	 0.022395	-2.132200	 71.705470	 4.112420	 1.292262	 28.425850	-2.713146	-177.353700	 1.748287	-17.809070	-2.681896	-12.821580	-0.035144	 2.314726	 71.817010	-4.205737	-1.288183	 28.361890	 2.710176	-0.056031	 2.715319	 1.550446	-0.452008	 3.673578	 0.828442	 0.372355	-4.690397	-2.372568	-101.478000	 1.740672	 90.353390	-3.137168	 60.797640	 5.405260	 7.099629	 14.500530	 0.550762	 10.140740	-4.694814	 6.007588	-6.580301	 5.266122	 0.000000	 0.000000	 0.000000	 0.000000	 0.000000	 0.000000	 0.000000	 0.089846	-3.783161	 0.005928	 0.006343	 1.250200	-0.581349	 101.796200	-0.213317	-89.955440	-17.307630	 25.378250	 22.434270	-92.691690	 56.874880	 56.513750	 16.829620	-36.546900	-26.418420	 15.208500	 5.323790	 0.000000	 0.000000	 0.000000	 0.000000	 0.000000	 0.000000	 0.000000
